<svg width="23" height="20" viewBox="0 0 23 20" fill="none" xmlns="http://www.w3.org/2000/svg">
<path d="M3.56524 0.873535C3.99379 0.873535 4.3682 1.1616 4.47557 1.57363L5.40609 5.1548H21.7957C22.0907 5.1548 22.3692 5.2929 22.5463 5.52718C22.7239 5.76146 22.7803 6.06547 22.6987 6.34715L19.9993 15.6508C19.8833 16.0505 19.5148 16.3258 19.0964 16.3258H8.30776L8.71429 17.8901H18.1856C18.6435 17.8901 19.0142 18.2588 19.0142 18.7133C19.0142 19.1681 18.643 19.5369 18.1856 19.5369H8.15864C7.73009 19.5369 7.35568 19.2488 7.24831 18.8363L3.00959 2.52031H0.833334C0.375416 2.52031 0.00467682 2.15158 0.00467682 1.69715C0.00467682 1.24227 0.375874 0.873535 0.833334 0.873535H3.5657L3.56524 0.873535ZM7.06019 11.5231L7.88013 14.6795H9.95085V11.5231H7.06019ZM5.83372 6.80203L6.63255 9.87635H9.95131V6.80203H5.83418H5.83372ZM11.6091 11.5231V14.6795H15.1458V11.5231H11.6091ZM11.6091 6.80203V9.87635H15.1458V6.80203H11.6091ZM16.5384 6.80203V9.87635H19.9498L20.8418 6.80203H16.5384ZM16.5384 11.5231V14.6795H18.5568L19.4726 11.5231H16.5388H16.5384Z" fill="#00523E"/>
</svg>
