<svg width="23" height="20" viewBox="0 0 23 20" fill="none" xmlns="http://www.w3.org/2000/svg">
<path d="M16.7828 0C16.7406 0 16.6993 0 16.657 0.00132588C14.0906 0.0499414 12.4308 1.2945 11.5 2.80423C10.5688 1.2945 8.90891 0.0499414 6.34297 0.00132588C6.30119 0.00044196 6.25896 0 6.21719 0C4.48455 0 2.91273 0.68327 1.79148 1.92429C0.619922 3.22144 0 5.04055 0 7.18494C0 11.3955 3.43203 13.9637 6.75086 16.4471C8.03158 17.4053 9.35543 18.3961 10.5009 19.4829L10.5521 19.5514C10.7795 19.8272 11.1101 19.989 11.4641 19.9991L11.5 20L11.5377 19.9991C11.8904 19.9885 12.2201 19.8272 12.4474 19.5523L12.4995 19.4825C13.645 18.3957 14.9689 17.4053 16.2491 16.4471C19.568 13.9637 23 11.3959 23 7.18538C23 2.97483 20.443 0 16.7828 0ZM16.6835 14.4967C15.016 15.7762 13.172 17.0543 11.5782 18.5672C11.5472 18.5968 11.522 18.622 11.4996 18.6458C11.4762 18.6215 11.4537 18.5977 11.4218 18.5672C9.29703 16.5514 6.7266 14.948 4.72309 13.2106C3.72088 12.3435 2.86287 11.4472 2.26182 10.4665C1.66076 9.48534 1.31037 8.4264 1.30857 7.18494C1.30947 5.23015 1.88402 3.76019 2.76988 2.77948C3.65754 1.8001 4.86189 1.28964 6.21674 1.28743L6.31736 1.28875C7.83482 1.32013 8.91564 1.84872 9.6874 2.60049C10.4569 3.35271 10.9075 4.34888 11.0696 5.296C11.1051 5.50284 11.2862 5.65399 11.4996 5.65399C11.7129 5.65399 11.8944 5.50328 11.9295 5.296C12.0912 4.34888 12.5422 3.35271 13.3117 2.60049C14.0835 1.84872 15.1643 1.32013 16.6817 1.28875L16.7824 1.28743C18.1372 1.29008 19.342 1.8001 20.2292 2.77948C21.1151 3.75975 21.6896 5.23015 21.6905 7.18494C21.6892 8.42596 21.3383 9.4849 20.7377 10.4665C19.8375 11.9373 18.3524 13.2181 16.6835 14.4967Z" fill="#00523E"/>
</svg>
