<svg width="21" height="21" viewBox="0 0 21 21" fill="none" xmlns="http://www.w3.org/2000/svg">
<g clip-path="url(#clip0_1_398)">
<path d="M12.8011 2.19214C9.87635 -0.73104 5.11825 -0.73104 2.19354 2.19214C-0.731179 5.11492 -0.731179 9.87068 2.19354 12.7935C5.11825 15.7162 9.87635 15.7162 12.8011 12.7935C15.7258 9.87068 15.7258 5.11492 12.8011 2.19214ZM11.7594 11.7525C9.40559 14.1043 5.5886 14.1043 3.23479 11.7521C0.880986 9.39982 0.880986 5.58537 3.23479 3.23353C5.5886 0.881284 9.40518 0.881284 11.759 3.23353C14.1128 5.58578 14.1132 9.39982 11.7594 11.7525Z" fill="#00523E"/>
<path d="M20.4543 18.3636L15.0103 13.0644C14.7124 12.7744 14.2371 12.7781 13.9428 13.0713L13.0797 13.9339C12.7858 14.2276 12.7829 14.7025 13.0735 14.9999L18.3759 20.4402C18.9648 21.1506 19.8345 21.1928 20.5068 20.5206C21.1799 19.8496 21.1651 18.9518 20.4543 18.3636Z" fill="#00523E"/>
</g>
<defs>
<clipPath id="clip0_1_398">
<rect width="21" height="21" fill="white"/>
</clipPath>
</defs>
</svg>
